<svg id="Layer_1" enable-background="new 0 0 512 512" height="512" viewBox="0 0 512 512" width="512" xmlns="http://www.w3.org/2000/svg"><g><g><path d="m502.867 418.357c-.23 10.779-.49 21.649-.77 32.609-.44 17.189-.96 34.589-1.56 52.138-8.81.82-17.25 1.21-24.91 1.34-21.64.36-37.07-1.34-37.07-1.34-.6-17.549-1.12-34.939-1.56-52.138-.29-11.04-.54-21.999-.77-32.849-1.19-56.118-1.63-109.565-1.63-158.153 0-80.657 1.22-147.924 2.31-191.802 0 0 6.93-19.439 20.14-41.658 3.68-6.19 7.85-12.599 12.5-18.869 21.31 28.719 32.65 60.527 32.65 60.527 1.73 70.347 3.83 200.811.67 350.195z" fill="#ffe36c"/><path d="m502.867 418.357c-.23 10.779-.49 21.649-.77 32.609-.44 17.189-.96 34.589-1.56 52.138-8.81.82-17.25 1.21-24.91 1.34 6.16-182.692 3.62-353.305 1.56-436.281 0 0-6.93-19.449-20.14-41.658 3.68-6.19 7.85-12.599 12.5-18.869 21.31 28.719 32.65 60.527 32.65 60.527 1.73 70.346 3.83 200.81.67 350.194z" fill="#ffc46e"/><path d="m502.867 418.357c-.23 10.779-.49 21.649-.77 32.609-.44 17.189-.96 34.589-1.56 52.138-8.81.82-17.25 1.21-24.91 1.34-21.64.36-37.07-1.34-37.07-1.34-.6-17.549-1.12-34.939-1.56-52.138-.29-11.04-.54-21.999-.77-32.849l.68-.14s18.24-2.3 41.08-1.74c7.72.19 15.97.7 24.21 1.74z" fill="#f4f1e1"/><path d="m502.867 418.357c-.23 10.779-.49 21.649-.77 32.609-.44 17.189-.96 34.589-1.56 52.138-8.81.82-17.25 1.21-24.91 1.34 1.01-29.839 1.78-59.347 2.36-88.206 7.72.19 15.97.7 24.21 1.74z" fill="#f4e5cb"/><path d="m502.097 450.965c-.44 17.189-.96 34.589-1.56 52.138-8.81.82-17.25 1.21-24.91 1.34-21.64.36-37.07-1.34-37.07-1.34-.6-17.549-1.12-34.939-1.56-52.138 1.43-.18 18.7-2.21 40.25-1.74 7.9.17 16.37.68 24.85 1.74z" fill="#ff7878"/><path d="m502.197 68.162c-8.51 1.07-17.03 1.59-24.97 1.76-22.49.49-40.32-1.76-40.32-1.76s6.93-19.439 20.14-41.658c3.68-6.19 7.85-12.599 12.5-18.869 21.31 28.718 32.65 60.527 32.65 60.527z" fill="#8389aa"/><path d="m477.187 68.162s-6.93-19.449-20.14-41.658c3.68-6.19 7.85-12.599 12.5-18.869 21.31 28.719 32.65 60.527 32.65 60.527-8.51 1.07-17.03 1.59-24.97 1.76-.01-.591-.03-1.18-.04-1.76z" fill="#646d91"/><path d="m389.506 501.103c-11.43.46-22.85.86-34.21 1.21-178.86 5.54-344.501-1.21-344.501-1.21-4.7-165.253-3.45-317.696-1.9-407.343 30.85-41.538 63.41-71.397 79.58-85.126 62.09-1.28 164.75-2.06 266.83 1.07 11.43.35 22.85.75 34.2 1.2.001 0 7.422 229.12.001 490.199z" fill="#f4f1e1"/><path d="m389.506 501.103c-11.43.46-22.85.86-34.21 1.21 3.13-225.78.77-436.001.01-492.609 11.43.35 22.85.75 34.2 1.2 0 0 7.421 229.12 0 490.199z" fill="#f4e5cb"/><path d="m88.946 93.76c-41.24 3.62-80.05 0-80.05 0 30.85-41.538 63.41-71.397 79.58-85.126 3.13 47.538.47 85.126.47 85.126z" fill="#fab684"/><path d="m477.247 449.225c7.9.17 16.37.68 24.85 1.74-.44 17.189-.96 34.589-1.56 52.138-8.81.82-17.25 1.21-24.91 1.34.63-18.559 1.16-36.989 1.62-55.218z" fill="#f4536f"/></g><g><path d="m391.409 86.472c-.044 0-.089 0-.133.001-4.141.072-7.44 3.487-7.369 7.628 1.642 95.086 2.658 241.065-1.703 399.775-165.853 6.296-328.833 1.234-364.106-.013-1.42-51.737-2.364-105.993-2.805-161.381-.033-4.122-3.384-7.44-7.498-7.44-.021 0-.041 0-.061 0-4.142.033-7.473 3.418-7.44 7.559.461 58.004 1.472 114.766 3.006 168.71.112 3.939 3.254 7.12 7.192 7.281 1.248.051 84.771 3.377 196.332 3.377 56.19 0 119.514-.844 182.98-3.376 3.94-.157 7.086-3.339 7.198-7.281 4.595-161.693 3.571-310.83 1.903-407.468-.071-4.099-3.414-7.372-7.496-7.372z"/><path d="m7.58 304.788h.032c4.142-.017 7.486-3.389 7.469-7.531-.332-80.047.429-149.241 1.184-195.426 7.371.474 19.241 1.048 33.458 1.048 12.054 0 25.791-.414 39.883-1.653 3.672-.323 6.565-3.266 6.825-6.942.104-1.468 2.379-34.623 0-78.31 52.075-.981 168.263-2.305 285.788 2.153.221 7.711.593 21.582 1.002 40.466.089 4.14 3.503 7.445 7.66 7.336 4.142-.089 7.426-3.519 7.336-7.66-.649-30.026-1.209-47.434-1.215-47.606-.127-3.93-3.269-7.094-7.197-7.251-126.577-5.05-253-3.277-301.481-2.28-1.725.036-3.385.665-4.701 1.782-16.785 14.252-49.594 44.426-80.746 86.37-.934 1.257-1.451 2.776-1.478 4.342-.796 46.063-1.671 118.793-1.319 203.694.017 4.131 3.372 7.469 7.5 7.468zm74.245-280.314c1.217 28.324.492 51.573-.007 62.322-23.114 1.624-44.957 1.071-58.449.397 21.51-27.294 43.014-48.672 58.456-62.719z"/><path d="m509.69 67.979c-.021-.795-.166-1.582-.434-2.332-.478-1.342-11.962-33.204-33.686-62.486-1.415-1.907-3.649-3.031-6.023-3.031s-4.608 1.124-6.023 3.031c-21.725 29.281-33.209 61.144-33.687 62.486-.268.749-.413 1.537-.434 2.332-1.584 64.039-3.178 165.293-1.77 283.995.049 4.142 3.422 7.486 7.588 7.41 4.142-.049 7.46-3.447 7.41-7.588-1.347-113.606.06-211.19 1.573-275.373 6.25.514 15.589 1.079 26.449 1.079 7.523 0 15.776-.273 24.237-1.02 1.663 70.687 3.437 193.244.654 333.238-21.357-1.945-41.465-.838-51.99.052-.151-7.552-.292-15.124-.419-22.721-.068-4.099-3.412-7.375-7.496-7.375-.043 0-.086 0-.128.001-4.142.069-7.443 3.482-7.374 7.624.66 39.548 1.643 78.596 2.921 116.06.128 3.724 2.97 6.79 6.675 7.199.783.086 13.377 1.44 31.658 1.44 9.39 0 20.28-.357 31.841-1.426 3.761-.348 6.677-3.438 6.806-7.212 6.267-183.695 3.725-351.629 1.652-435.383zm-62.077-6.353c4.075-9.498 11.497-25.201 21.935-40.935 10.466 15.778 17.902 31.527 21.969 41.016-17.39 1.364-33.897.654-43.904-.081zm45.656 434.547c-20.479 1.439-38.326.647-47.443.016-.418-12.655-.801-25.489-1.151-38.448 9.944-.834 29.438-1.925 49.746-.062-.342 12.734-.725 25.571-1.152 38.494zm1.541-53.521c-20.6-1.811-39.943-.81-50.524.058-.147-5.941-.284-11.912-.417-17.897 9.801-.849 30.229-2.077 51.359-.06-.13 5.939-.269 11.906-.418 17.899z"/><path d="m329.241 154.941h-258.179c-4.142 0-7.5 3.358-7.5 7.5s3.358 7.5 7.5 7.5h258.179c4.143 0 7.5-3.358 7.5-7.5s-3.358-7.5-7.5-7.5z"/><path d="m240.097 118.942c4.142 0 7.5-3.358 7.5-7.5s-3.358-7.5-7.5-7.5h-79.892c-4.142 0-7.5 3.358-7.5 7.5s3.358 7.5 7.5 7.5z"/><path d="m329.241 256.936h-258.179c-4.142 0-7.5 3.358-7.5 7.5s3.358 7.5 7.5 7.5h258.179c4.143 0 7.5-3.358 7.5-7.5s-3.358-7.5-7.5-7.5z"/><path d="m329.241 307.934h-258.179c-4.142 0-7.5 3.358-7.5 7.5s3.358 7.5 7.5 7.5h258.179c4.143 0 7.5-3.358 7.5-7.5s-3.358-7.5-7.5-7.5z"/><path d="m329.241 358.932h-258.179c-4.142 0-7.5 3.358-7.5 7.5s3.358 7.5 7.5 7.5h258.179c4.143 0 7.5-3.358 7.5-7.5s-3.358-7.5-7.5-7.5z"/><path d="m329.241 409.93h-42.4c-4.143 0-7.5 3.358-7.5 7.5s3.357 7.5 7.5 7.5h42.4c4.143 0 7.5-3.358 7.5-7.5 0-4.143-3.358-7.5-7.5-7.5z"/><path d="m71.062 409.93c-4.142 0-7.5 3.358-7.5 7.5s3.358 7.5 7.5 7.5h185.872c4.142 0 7.5-3.358 7.5-7.5s-3.357-7.5-7.5-7.5z"/><path d="m71.062 220.938h42.4c4.142 0 7.5-3.358 7.5-7.5s-3.358-7.5-7.5-7.5h-42.4c-4.142 0-7.5 3.358-7.5 7.5-.001 4.142 3.357 7.5 7.5 7.5z"/><path d="m329.241 205.938h-185.873c-4.142 0-7.5 3.358-7.5 7.5s3.358 7.5 7.5 7.5h185.873c4.143 0 7.5-3.358 7.5-7.5s-3.358-7.5-7.5-7.5z"/></g></g></svg>